{"accessors" : [{"bufferView" : 0, "byteOffset" : 0, "componentType" : 5123, "count" : 17292, "type" : "SCALAR", "max" : [2873], "min" : [0]}, {"bufferView" : 1, "byteOffset" : 0, "componentType" : 5126, "count" : 2874, "type" : "VEC3", "max" : [56.573001861572266, 33.99800109863281, 40.37200164794922], "min" : [-56.61000061035156, -33.99800109863281, 0], "name" : "POSITION"}], "asset" : {"generator" : "Aspose.3D 24.9.1", "version" : "2.0"}, "buffers" : [{"uri" : "data:application/octet-stream;base64,", "byteLength" : 69080}], "bufferViews" : [{"buffer" : 0, "byteOffset" : 0, "byteLength" : 34584, "target" : 34963}, {"buffer" : 0, "byteOffset" : 34588, "byteLength" : 34488, "byteStride" : 12, "target" : 34962}], "meshes" : [{"primitives" : [{"attributes" : {"POSITION" : 1}, "indices" : 0, "mode" : 4}], "name" : ""}], "nodes" : [{"mesh" : 0, "name" : "group_0_7378135"}], "scene" : 0, "scenes" : [{"nodes" : [0]}]}